<?xml version="1.0" standalone="no"?>
<!DOCTYPE svg PUBLIC "-//W3C//DTD SVG 20010904//EN"
 "http://www.w3.org/TR/2001/REC-SVG-20010904/DTD/svg10.dtd">
<svg version="1.0" xmlns="http://www.w3.org/2000/svg"
 width="600.000000pt" height="280.000000pt" viewBox="0 0 600.000000 280.000000"
 preserveAspectRatio="xMidYMid meet">
<g transform="translate(0.000000,280.000000) scale(0.100000,-0.100000)"
fill="#000000" stroke="none">
<path d="M1840 2754 c-163 -25 -271 -59 -400 -125 -325 -166 -539 -482 -611
-899 -27 -159 -27 -410 0 -571 95 -549 436 -918 941 -1013 277 -53 467 -18
526 97 27 51 30 196 26 1122 l-4 920 -172 -2 c-162 -1 -208 -9 -150 -25 67
-18 109 -103 124 -251 5 -51 10 -476 11 -946 3 -786 1 -855 -14 -866 -22 -16
-202 -9 -286 12 -234 57 -432 228 -560 482 -46 90 -107 280 -126 388 -35 205
-37 504 -4 678 73 395 296 726 584 870 145 72 163 75 540 75 231 -1 353 -5
405 -14 236 -42 428 -190 529 -408 50 -105 66 -186 58 -291 -16 -222 -140
-422 -325 -521 -148 -80 -265 -203 -317 -334 -74 -183 -68 -438 14 -600 111
-221 306 -346 616 -397 131 -22 1056 -21 1199 0 524 79 846 488 846 1075 0
404 -158 731 -444 918 -168 110 -315 151 -568 159 l-168 6 0 -53 c0 -52 0 -53
20 -35 13 12 49 21 104 28 170 21 349 -42 491 -175 214 -200 316 -509 302
-916 -12 -349 -99 -586 -281 -768 -89 -88 -170 -139 -281 -175 -68 -22 -81
-22 -445 -21 -691 4 -776 12 -929 92 -99 52 -160 105 -214 188 -130 197 -140
508 -25 725 42 79 144 186 209 221 157 84 272 196 330 321 53 115 64 171 64
320 -1 220 -46 337 -179 470 -66 66 -99 90 -176 128 -207 101 -322 117 -840
115 -217 0 -406 -2 -420 -4z m30 -39 c0 -9 -41 -11 -47 -3 -3 7 -1 8 5 4 7 -4
12 -3 12 3 0 6 7 8 15 5 8 -4 15 -7 15 -9z m-57 -9 c4 -10 1 -13 -9 -9 -7 3
-14 0 -14 -7 0 -6 -4 -9 -9 -5 -5 3 -13 0 -16 -6 -4 -5 -14 -8 -22 -5 -8 3
-11 1 -8 -4 8 -13 -21 -13 -45 0 -14 7 -18 6 -16 -5 1 -8 6 -18 11 -22 4 -4 5
-2 1 5 -4 6 -2 12 3 12 14 0 14 -17 1 -25 -5 -3 -18 3 -30 15 -11 11 -20 16
-20 12 0 -4 5 -13 12 -20 13 -13 -5 -42 -27 -42 -7 0 -28 -13 -46 -30 -19 -16
-39 -30 -45 -30 -7 0 -19 -12 -29 -26 -9 -14 -39 -47 -66 -74 -27 -26 -49 -53
-49 -59 0 -6 -5 -11 -11 -11 -5 0 -7 -4 -4 -10 3 -5 2 -10 -2 -10 -11 0 -81
-94 -93 -125 -5 -13 -26 -49 -46 -79 -21 -32 -34 -62 -31 -71 4 -8 3 -15 -1
-15 -8 0 -33 -66 -35 -92 -1 -10 -5 -18 -10 -18 -5 0 -7 -6 -4 -12 2 -7 0 -21
-5 -31 -9 -18 -16 -43 -22 -82 -2 -11 -11 -56 -21 -100 -28 -132 -25 -469 6
-614 5 -25 10 -53 10 -61 1 -8 6 -33 12 -55 11 -44 17 -71 19 -97 1 -9 6 -14
10 -12 8 5 12 -16 9 -48 -1 -10 2 -18 7 -18 6 0 13 -18 17 -40 4 -22 11 -38
16 -34 9 5 13 -8 10 -32 -1 -6 6 -17 14 -24 8 -7 15 -22 15 -33 0 -11 3 -17 7
-14 3 4 12 -4 19 -18 25 -48 49 -90 55 -95 3 -3 19 -24 36 -47 17 -23 33 -39
37 -36 3 3 6 1 6 -6 0 -15 60 -75 115 -116 22 -16 48 -37 58 -47 10 -10 25
-18 33 -18 9 0 28 -9 42 -19 15 -10 29 -19 32 -20 3 -1 15 -4 28 -7 12 -4 22
-10 22 -14 0 -4 14 -7 31 -8 18 0 36 -5 42 -11 12 -12 -78 -6 -108 8 -16 7
-81 27 -117 37 -5 1 -11 3 -15 4 -5 2 -12 4 -18 4 -5 1 -20 8 -33 14 -12 7
-27 10 -32 7 -5 -3 -7 1 -4 9 4 11 0 13 -18 9 -18 -4 -20 -3 -8 6 13 9 12 11
-4 11 -11 0 -28 8 -39 17 -13 11 -17 13 -12 4 5 -8 -7 -3 -27 12 -19 15 -39
27 -45 27 -5 0 -18 10 -29 23 l-19 22 25 -20 25 -20 -19 22 c-10 13 -23 20
-27 17 -12 -7 -40 21 -31 30 3 4 -2 4 -13 0 -15 -6 -17 -4 -12 9 3 9 2 17 -3
17 -5 0 -23 13 -40 30 -16 16 -30 27 -30 24 0 -3 -5 -2 -11 2 -8 4 -7 9 2 15
11 7 10 9 -3 9 -10 0 -18 7 -18 15 0 8 -9 20 -20 27 -11 7 -20 18 -20 25 0 6
-13 26 -30 44 -28 31 -114 197 -138 264 -16 48 -51 177 -58 215 -3 19 -9 49
-12 65 -12 57 -7 507 6 565 34 146 47 190 54 190 4 0 8 14 8 31 0 19 4 28 11
23 8 -4 9 1 4 16 -5 16 -4 20 5 15 9 -5 10 -1 5 15 -4 14 -3 20 3 16 9 -5 27
47 23 67 -1 5 3 6 9 2 5 -3 11 -1 11 4 1 6 3 16 4 21 1 6 3 13 4 18 1 4 5 1
10 -7 6 -9 8 -5 9 15 0 15 5 30 11 32 6 2 11 10 11 18 0 8 4 14 9 14 5 0 13
12 19 28 5 15 35 53 65 85 31 31 53 57 49 57 -3 0 5 8 18 17 14 10 29 17 33
15 5 -1 6 2 2 7 -3 6 5 15 17 22 12 7 36 25 53 41 16 15 36 26 43 23 7 -3 10
0 7 5 -4 6 11 18 32 26 21 9 42 22 46 30 4 8 20 14 34 14 15 0 23 3 20 7 -9 8
48 33 75 33 10 0 17 3 15 8 -3 4 5 8 18 8 13 1 37 9 54 17 22 11 31 12 35 3 3
-8 7 -8 13 0 6 10 55 25 104 33 4 1 9 -6 12 -13z m1014 -1 c18 -4 30 -11 27
-16 -3 -5 13 -7 36 -5 22 2 40 -1 40 -5 0 -5 7 -9 16 -9 9 0 12 -5 8 -12 -5
-9 -2 -9 9 1 13 10 17 10 17 1 0 -7 7 -10 15 -6 8 3 19 -2 24 -12 7 -11 11
-12 11 -4 0 7 4 11 10 7 5 -3 7 -13 4 -23 -4 -11 -3 -13 3 -5 10 14 56 6 47
-9 -3 -5 0 -8 8 -6 18 4 118 -57 118 -72 0 -6 4 -9 9 -6 9 6 26 -22 22 -37 -1
-5 3 -6 8 -3 5 4 16 -3 24 -14 7 -11 17 -17 22 -12 5 4 5 2 2 -4 -4 -6 9 -32
29 -57 19 -25 36 -54 37 -65 0 -11 5 -18 9 -16 4 3 8 -1 9 -8 1 -16 5 -37 19
-103 17 -76 23 -231 11 -265 -5 -17 -6 -28 -1 -25 10 6 -2 -39 -31 -115 -11
-30 -21 -62 -22 -70 -1 -8 -5 -17 -8 -20 -4 -3 -24 -30 -45 -61 -48 -69 -160
-170 -180 -162 -7 3 -11 10 -7 16 4 6 1 7 -6 2 -9 -5 -10 -10 -2 -18 7 -7 -4
-18 -39 -35 -28 -13 -50 -28 -50 -33 0 -5 -6 -9 -12 -9 -12 0 -92 -74 -147
-137 -28 -31 -83 -149 -99 -213 -26 -102 -32 -161 -27 -270 5 -119 23 -191 74
-288 12 -23 19 -47 16 -52 -4 -6 1 -7 11 -3 11 4 15 3 10 -5 -3 -6 7 -26 24
-44 54 -59 67 -74 79 -94 9 -14 11 -15 7 -2 -3 12 -1 15 10 11 7 -3 14 -11 14
-19 0 -7 15 -20 33 -28 17 -8 64 -29 102 -47 39 -18 78 -32 88 -31 9 0 15 -3
12 -8 -3 -4 1 -10 7 -13 7 -2 1 -4 -14 -3 -14 0 -24 4 -21 8 2 5 -4 7 -14 6
-28 -3 -93 13 -93 24 0 5 -6 8 -12 7 -23 -3 -77 13 -89 27 -6 7 -16 11 -23 8
-6 -2 -23 7 -36 21 -13 14 -29 25 -37 25 -7 0 -13 5 -13 10 0 6 -6 10 -13 10
-23 0 -98 60 -91 72 5 7 2 9 -8 5 -10 -3 -20 4 -29 21 -7 15 -26 43 -41 63
-15 20 -28 41 -28 47 0 6 -3 12 -7 14 -13 5 -51 127 -64 202 -18 103 -2 285
30 345 7 12 10 25 7 28 -3 3 2 12 10 20 8 9 13 22 10 30 -3 8 -1 11 4 8 6 -3
10 3 10 15 0 12 5 18 10 15 6 -3 10 1 10 9 0 8 8 20 18 25 9 6 13 11 8 11 -5
0 0 10 12 23 11 12 21 26 21 32 0 5 5 11 13 13 9 2 8 0 -2 -8 -13 -10 -13 -11
0 -7 8 2 16 9 16 15 1 7 2 16 3 21 1 13 60 41 84 41 20 0 20 0 2 14 -17 12
-16 14 21 26 21 7 47 20 58 29 10 9 20 15 22 14 10 -7 25 -2 20 6 -3 4 10 17
29 27 19 10 35 22 35 26 0 5 7 8 16 8 8 0 12 5 8 11 -5 8 -1 8 14 0 23 -12 35
-2 22 19 -6 10 3 27 30 56 65 70 125 203 138 304 17 131 -4 316 -39 355 -5 5
-9 15 -9 21 0 17 -61 115 -85 137 -11 10 -14 15 -6 11 9 -4 12 -2 9 7 -3 8
-11 14 -19 14 -8 1 -12 7 -11 15 2 8 0 12 -4 8 -9 -10 -35 12 -28 23 3 5 0 8
-8 7 -7 -2 -12 3 -10 10 1 6 -3 12 -9 12 -6 0 -9 7 -6 14 4 11 1 13 -10 9 -9
-4 -21 1 -29 12 -8 10 -14 16 -14 12 0 -4 -18 5 -40 19 -22 15 -37 31 -33 37
3 5 1 7 -4 4 -6 -4 -22 -1 -36 6 -23 12 -23 14 -9 24 14 9 12 10 -10 6 -15 -3
-36 -2 -45 2 -10 5 -24 7 -32 6 -8 -2 -12 3 -8 12 4 12 -2 15 -30 12 -20 -1
-48 1 -62 5 -33 10 91 6 136 -5z m-552 -457 c15 -14 24 -1794 10 -1923 -7 -60
-20 -89 -36 -80 -4 3 -6 -4 -4 -15 2 -13 -1 -20 -11 -20 -8 0 -14 -4 -14 -8 0
-5 -11 -14 -25 -20 -19 -9 -25 -9 -25 1 -1 7 -6 5 -14 -5 -7 -10 -16 -15 -19
-12 -3 4 3 14 15 23 18 15 20 27 19 106 -1 48 -4 91 -6 95 -3 4 -5 358 -5 786
-1 451 -5 812 -11 858 -7 52 -21 104 -43 150 l-32 71 98 -1 c54 -1 101 -3 103
-6z m2302 -30 c15 -6 35 -12 43 -14 37 -7 90 -38 86 -50 -3 -8 0 -11 9 -7 8 3
12 9 9 14 -3 5 2 6 10 3 9 -3 13 -11 9 -17 -4 -6 0 -8 10 -4 8 3 21 -1 27 -8
7 -8 17 -12 23 -8 6 4 8 0 4 -11 -4 -10 -3 -15 3 -11 13 8 90 -37 90 -53 0 -7
5 -10 12 -6 7 5 9 1 6 -13 -3 -12 0 -20 8 -20 7 0 10 5 7 11 -3 6 4 1 16 -11
12 -13 27 -23 33 -23 6 0 8 -3 5 -6 -10 -10 12 -44 28 -44 17 0 41 -39 36 -59
-2 -9 3 -12 14 -7 10 3 14 2 9 -5 -3 -6 4 -20 16 -32 26 -24 102 -179 104
-212 0 -13 4 -21 8 -19 5 4 24 -64 34 -126 1 -8 5 -26 9 -40 13 -44 17 -362 6
-430 -12 -76 -20 -119 -28 -140 -3 -8 -7 -26 -9 -39 -1 -13 -19 -57 -38 -98
-20 -41 -34 -79 -31 -83 3 -5 2 -10 -2 -12 -12 -5 -53 -66 -53 -78 0 -9 -14
-14 -33 -11 -5 1 -6 -3 -2 -9 4 -6 0 -22 -9 -35 -21 -32 -143 -154 -157 -157
-6 -2 -22 -13 -35 -26 -13 -13 -29 -20 -36 -16 -7 4 -8 3 -4 -5 5 -7 -3 -13
-23 -17 -17 -4 -29 -10 -26 -14 3 -4 -15 -13 -40 -20 -25 -7 -42 -16 -39 -21
3 -5 -1 -6 -9 -3 -8 3 -30 -5 -50 -16 -20 -12 -41 -19 -47 -15 -5 3 -10 2 -10
-2 0 -5 -15 -9 -32 -10 -18 -1 -25 1 -14 4 10 3 43 21 74 40 30 19 51 29 48
22 -4 -8 -1 -6 7 4 8 9 19 17 25 17 14 0 102 87 102 101 0 5 4 8 9 4 5 -3 13
4 16 16 4 12 12 18 21 15 8 -3 19 4 25 16 8 15 8 18 0 14 -21 -13 -11 10 14
34 14 13 25 29 25 35 0 7 9 22 20 35 11 13 20 26 20 30 0 4 14 38 32 76 17 38
30 77 29 88 -1 10 1 16 6 13 5 -3 10 13 10 35 1 23 6 44 11 47 5 3 9 13 10 21
0 8 5 38 11 65 22 97 25 379 6 521 -9 71 -22 145 -28 164 -6 19 -12 37 -12 40
-3 16 -30 91 -47 128 -11 24 -20 52 -21 62 -1 10 -4 17 -8 15 -3 -3 -15 12
-25 33 -10 20 -22 39 -26 40 -5 2 -8 11 -8 20 0 10 -20 36 -44 59 -24 22 -46
49 -50 58 -3 9 -10 13 -16 10 -5 -3 -10 1 -10 9 0 8 -9 18 -20 21 -11 3 -25
15 -30 26 -6 10 -17 19 -25 19 -8 0 -15 5 -15 11 0 5 -4 7 -10 4 -5 -3 -10 -1
-10 4 0 6 -7 11 -15 11 -8 0 -15 4 -15 9 0 7 -8 12 -50 25 -3 1 -14 7 -25 13
-17 10 -17 12 -3 13 9 0 29 -5 45 -12z m-1252 -2060 c13 -5 7 -6 -20 -2 -22 3
-44 10 -50 15 -11 11 35 3 70 -13z m-1468 6 c-3 -3 -12 -4 -19 -1 -8 3 -5 6 6
6 11 1 17 -2 13 -5z m116 -11 c-7 -2 -19 -2 -25 0 -7 3 -2 5 12 5 14 0 19 -2
13 -5z m1514 1 c-3 -3 -12 -4 -19 -1 -8 3 -5 6 6 6 11 1 17 -2 13 -5z"/>
<path d="M1090 2280 c-6 -11 -8 -20 -6 -20 3 0 10 9 16 20 6 11 8 20 6 20 -3
0 -10 -9 -16 -20z"/>
<path d="M3020 1480 c-9 -6 -10 -10 -3 -10 6 0 15 5 18 10 8 12 4 12 -15 0z"/>
<path d="M2800 501 c0 -6 4 -13 10 -16 6 -3 7 1 4 9 -7 18 -14 21 -14 7z"/>
<path d="M2946 265 c4 -8 11 -15 16 -15 6 0 5 6 -2 15 -7 8 -14 15 -16 15 -2
0 -1 -7 2 -15z"/>
<path d="M4967 1947 c-3 -8 1 -14 8 -14 7 0 11 6 8 14 -3 7 -6 13 -8 13 -2 0
-5 -6 -8 -13z"/>
<path d="M4590 209 c0 -5 5 -7 10 -4 6 3 10 8 10 11 0 2 -4 4 -10 4 -5 0 -10
-5 -10 -11z"/>
<path d="M1226 2545 c-11 -8 -15 -15 -9 -15 6 0 16 7 23 15 16 19 11 19 -14 0z"/>
<path d="M3306 2547 c3 -10 9 -15 12 -12 3 3 0 11 -7 18 -10 9 -11 8 -5 -6z"/>
<path d="M3336 2548 c3 -5 10 -6 15 -3 13 9 11 12 -6 12 -8 0 -12 -4 -9 -9z"/>
<path d="M1145 2470 c-4 -6 -11 -7 -17 -4 -7 4 -8 2 -4 -5 6 -9 11 -9 22 0 14
11 18 19 10 19 -3 0 -8 -5 -11 -10z"/>
<path d="M3040 2446 c0 -2 8 -10 18 -17 15 -13 16 -12 3 4 -13 16 -21 21 -21
13z"/>
<path d="M3540 2281 c0 -5 14 -11 31 -15 74 -15 128 -93 148 -217 23 -136 41
-657 41 -1171 l0 -518 135 0 c83 0 135 4 135 10 0 6 -8 10 -18 10 -20 0 -52
31 -70 66 -32 62 -40 194 -27 464 5 102 25 617 40 1020 3 80 8 193 11 253 l6
107 -216 0 c-119 0 -216 -4 -216 -9z m388 -36 c10 -4 12 -25 7 -90 -3 -46 -8
-171 -10 -277 -3 -106 -9 -276 -15 -378 -11 -207 -31 -759 -31 -860 0 -79 14
-157 39 -213 l19 -42 -65 2 c-36 1 -68 5 -72 10 -5 4 -10 283 -13 618 -3 336
-10 673 -16 750 -24 325 -21 301 -40 362 -5 17 -6 35 -3 39 4 4 2 5 -3 2 -6
-4 -19 11 -29 33 -11 21 -23 39 -28 39 -5 0 -7 4 -4 8 5 9 241 6 264 -3z"/>
<path d="M5016 2057 c3 -10 9 -15 12 -12 3 3 0 11 -7 18 -10 9 -11 8 -5 -6z"/>
<path d="M3120 1745 c0 -5 5 -17 10 -25 5 -8 10 -10 10 -5 0 6 -5 17 -10 25
-5 8 -10 11 -10 5z"/>
<path d="M4886 1717 c3 -10 9 -15 12 -12 3 3 0 11 -7 18 -10 9 -11 8 -5 -6z"/>
<path d="M3616 1546 c-16 -40 -41 -46 -187 -46 l-96 0 -98 -65 -97 -65 124 -1
c67 -1 169 -4 226 -8 106 -6 107 -7 137 -56 7 -11 10 28 10 129 0 80 -1 146
-2 146 -2 0 -9 -15 -17 -34z m-16 -110 l0 -53 -42 3 c-24 2 -97 6 -164 7 -66
2 -125 7 -131 10 -6 4 -14 2 -16 -3 -4 -7 -5 -6 -3 1 1 6 15 18 31 27 17 9 33
21 36 25 3 5 57 10 120 12 63 2 125 8 139 14 14 5 26 10 28 10 1 1 2 -23 2
-53z"/>
<path d="M2435 1425 c0 -129 1 -141 14 -117 8 15 18 30 24 33 5 4 56 10 113
14 l103 7 68 51 c38 29 79 59 91 67 21 14 11 15 -120 18 -213 5 -260 12 -274
40 -6 12 -13 24 -15 26 -2 3 -4 -60 -4 -139z m40 56 c-3 -6 14 -8 40 -6 25 1
48 -1 51 -6 3 -5 21 -9 40 -9 21 0 33 4 29 10 -3 5 0 8 7 5 7 -2 37 -6 67 -9
48 -5 84 -16 52 -16 -6 0 -21 -9 -33 -20 -12 -11 -28 -20 -35 -20 -8 0 -11 -4
-8 -10 3 -5 0 -10 -7 -10 -63 -1 -158 -9 -180 -15 -27 -7 -28 -6 -28 31 0 22
-3 49 -6 62 -4 13 -2 22 5 22 7 0 10 -4 6 -9z"/>
<path d="M3703 1320 c0 -25 2 -35 4 -22 2 12 2 32 0 45 -2 12 -4 2 -4 -23z"/>
<path d="M3016 1288 c3 -5 10 -6 15 -3 13 9 11 12 -6 12 -8 0 -12 -4 -9 -9z"/>
<path d="M2511 894 c0 -11 3 -14 6 -6 3 7 2 16 -1 19 -3 4 -6 -2 -5 -13z"/>
<path d="M2861 624 c0 -11 3 -14 6 -6 3 7 2 16 -1 19 -3 4 -6 -2 -5 -13z"/>
<path d="M1505 471 c-3 -5 -2 -12 3 -15 5 -3 9 1 9 9 0 17 -3 19 -12 6z"/>
</g>
</svg>
